<mxfile host="app.diagrams.net" modified="2021-07-07T01:28:44.821Z" agent="5.0 (Windows NT 6.1; Win64; x64) AppleWebKit/537.36 (KHTML, like Gecko) Chrome/91.0.4472.124 Safari/537.36" etag="I4ukOsBTZMAQ0cohRGBm" version="14.8.3" type="github">
  <diagram id="EjavUwahsE4YkXEUyNvn" name="第 1 页">
    <mxGraphModel dx="1102" dy="1751" grid="1" gridSize="10" guides="1" tooltips="1" connect="1" arrows="1" fold="1" page="1" pageScale="1" pageWidth="827" pageHeight="1169" math="0" shadow="0">
      <root>
        <mxCell id="0" />
        <mxCell id="1" parent="0" />
        <mxCell id="kcX6w27q7vT2_koJ7fqC-1" value="" style="shape=flexArrow;endArrow=classic;html=1;fontSize=16;fillColor=#f9f7ed;strokeColor=#36393d;" edge="1" parent="1">
          <mxGeometry width="50" height="50" relative="1" as="geometry">
            <mxPoint x="200" y="40" as="sourcePoint" />
            <mxPoint x="200" y="520" as="targetPoint" />
          </mxGeometry>
        </mxCell>
        <mxCell id="kcX6w27q7vT2_koJ7fqC-2" value="" style="shape=flexArrow;endArrow=classic;html=1;fontSize=16;fillColor=#f9f7ed;strokeColor=#36393d;" edge="1" parent="1">
          <mxGeometry width="50" height="50" relative="1" as="geometry">
            <mxPoint x="400" y="40" as="sourcePoint" />
            <mxPoint x="400" y="520" as="targetPoint" />
          </mxGeometry>
        </mxCell>
        <mxCell id="kcX6w27q7vT2_koJ7fqC-3" value="请求A" style="endArrow=classic;html=1;fontSize=16;fillColor=#ffff88;strokeWidth=2;strokeColor=#3399FF;fontColor=#3399FF;" edge="1" parent="1">
          <mxGeometry width="50" height="50" relative="1" as="geometry">
            <mxPoint x="206.67000000000007" y="130" as="sourcePoint" />
            <mxPoint x="386.6700000000001" y="180" as="targetPoint" />
          </mxGeometry>
        </mxCell>
        <mxCell id="kcX6w27q7vT2_koJ7fqC-4" value="响应B" style="endArrow=classic;html=1;fontSize=16;strokeWidth=2;strokeColor=#00CC00;fontColor=#00CC00;" edge="1" parent="1">
          <mxGeometry width="50" height="50" relative="1" as="geometry">
            <mxPoint x="386.6700000000001" y="200" as="sourcePoint" />
            <mxPoint x="206.67000000000007" y="250" as="targetPoint" />
          </mxGeometry>
        </mxCell>
        <mxCell id="kcX6w27q7vT2_koJ7fqC-5" value="服务器" style="aspect=fixed;perimeter=ellipsePerimeter;html=1;align=center;shadow=0;dashed=0;spacingTop=3;image;image=img/lib/active_directory/web_server.svg;fontSize=16;" vertex="1" parent="1">
          <mxGeometry x="370" y="-70" width="56" height="70" as="geometry" />
        </mxCell>
        <mxCell id="kcX6w27q7vT2_koJ7fqC-6" value="浏览器" style="aspect=fixed;perimeter=ellipsePerimeter;html=1;align=center;shadow=0;dashed=0;spacingTop=3;image;image=img/lib/active_directory/home_page.svg;fontSize=16;" vertex="1" parent="1">
          <mxGeometry x="170" y="-60" width="66.67" height="60" as="geometry" />
        </mxCell>
        <mxCell id="kcX6w27q7vT2_koJ7fqC-7" value="" style="shape=flexArrow;endArrow=classic;startArrow=classic;html=1;fontSize=16;fillColor=#ffcd28;strokeColor=#d79b00;gradientColor=#ffa500;" edge="1" parent="1">
          <mxGeometry width="100" height="100" relative="1" as="geometry">
            <mxPoint x="210" y="100" as="sourcePoint" />
            <mxPoint x="380" y="100" as="targetPoint" />
          </mxGeometry>
        </mxCell>
        <mxCell id="kcX6w27q7vT2_koJ7fqC-8" value="TCP 三次握手&lt;br style=&quot;font-size: 16px;&quot;&gt;建立连接" style="text;html=1;align=center;verticalAlign=middle;resizable=0;points=[];autosize=1;strokeColor=#d79b00;fontSize=16;fillColor=#ffe6cc;" vertex="1" parent="1">
          <mxGeometry x="236.67" y="50" width="120" height="40" as="geometry" />
        </mxCell>
        <mxCell id="kcX6w27q7vT2_koJ7fqC-9" value="请求B" style="endArrow=classic;html=1;fontSize=16;fillColor=#ffff88;strokeWidth=2;strokeColor=#3399FF;fontColor=#3399FF;" edge="1" parent="1">
          <mxGeometry width="50" height="50" relative="1" as="geometry">
            <mxPoint x="208.34000000000015" y="270" as="sourcePoint" />
            <mxPoint x="388.34000000000015" y="320" as="targetPoint" />
          </mxGeometry>
        </mxCell>
        <mxCell id="kcX6w27q7vT2_koJ7fqC-10" value="响应B" style="endArrow=classic;html=1;fontSize=16;strokeWidth=2;strokeColor=#00CC00;fontColor=#00CC00;" edge="1" parent="1">
          <mxGeometry width="50" height="50" relative="1" as="geometry">
            <mxPoint x="388.34000000000015" y="340" as="sourcePoint" />
            <mxPoint x="208.34000000000015" y="390" as="targetPoint" />
          </mxGeometry>
        </mxCell>
        <mxCell id="kcX6w27q7vT2_koJ7fqC-11" value="" style="shape=flexArrow;endArrow=classic;startArrow=classic;html=1;fontSize=16;gradientColor=#ea6b66;fillColor=#f8cecc;strokeColor=#b85450;" edge="1" parent="1">
          <mxGeometry width="100" height="100" relative="1" as="geometry">
            <mxPoint x="211.67000000000007" y="460" as="sourcePoint" />
            <mxPoint x="381.6700000000001" y="460" as="targetPoint" />
          </mxGeometry>
        </mxCell>
        <mxCell id="kcX6w27q7vT2_koJ7fqC-12" value="TCP 四次挥手&lt;br style=&quot;font-size: 16px;&quot;&gt;断开连接" style="text;html=1;align=center;verticalAlign=middle;resizable=0;points=[];autosize=1;strokeColor=#b85450;fontSize=16;fillColor=#f8cecc;" vertex="1" parent="1">
          <mxGeometry x="238.33999999999997" y="410" width="120" height="40" as="geometry" />
        </mxCell>
        <mxCell id="kcX6w27q7vT2_koJ7fqC-15" value="" style="shape=flexArrow;endArrow=classic;html=1;fontSize=16;fillColor=#f9f7ed;strokeColor=#36393d;" edge="1" parent="1">
          <mxGeometry width="50" height="50" relative="1" as="geometry">
            <mxPoint x="560" y="30" as="sourcePoint" />
            <mxPoint x="560" y="520" as="targetPoint" />
          </mxGeometry>
        </mxCell>
        <mxCell id="kcX6w27q7vT2_koJ7fqC-16" value="" style="shape=flexArrow;endArrow=classic;html=1;fontSize=16;fillColor=#f9f7ed;strokeColor=#36393d;" edge="1" parent="1">
          <mxGeometry width="50" height="50" relative="1" as="geometry">
            <mxPoint x="760" y="30" as="sourcePoint" />
            <mxPoint x="760" y="520" as="targetPoint" />
          </mxGeometry>
        </mxCell>
        <mxCell id="kcX6w27q7vT2_koJ7fqC-17" value="请求A" style="endArrow=classic;html=1;fontSize=16;fillColor=#ffff88;strokeWidth=2;strokeColor=#3399FF;fontColor=#3399FF;" edge="1" parent="1">
          <mxGeometry width="50" height="50" relative="1" as="geometry">
            <mxPoint x="566.6700000000001" y="120" as="sourcePoint" />
            <mxPoint x="746.6700000000001" y="170" as="targetPoint" />
          </mxGeometry>
        </mxCell>
        <mxCell id="kcX6w27q7vT2_koJ7fqC-19" value="服务器" style="aspect=fixed;perimeter=ellipsePerimeter;html=1;align=center;shadow=0;dashed=0;spacingTop=3;image;image=img/lib/active_directory/web_server.svg;fontSize=16;" vertex="1" parent="1">
          <mxGeometry x="730" y="-80" width="56" height="70" as="geometry" />
        </mxCell>
        <mxCell id="kcX6w27q7vT2_koJ7fqC-20" value="浏览器" style="aspect=fixed;perimeter=ellipsePerimeter;html=1;align=center;shadow=0;dashed=0;spacingTop=3;image;image=img/lib/active_directory/home_page.svg;fontSize=16;" vertex="1" parent="1">
          <mxGeometry x="530" y="-70" width="66.67" height="60" as="geometry" />
        </mxCell>
        <mxCell id="kcX6w27q7vT2_koJ7fqC-21" value="" style="shape=flexArrow;endArrow=classic;startArrow=classic;html=1;fontSize=16;fillColor=#ffcd28;strokeColor=#d79b00;gradientColor=#ffa500;" edge="1" parent="1">
          <mxGeometry width="100" height="100" relative="1" as="geometry">
            <mxPoint x="570" y="90" as="sourcePoint" />
            <mxPoint x="740" y="90" as="targetPoint" />
          </mxGeometry>
        </mxCell>
        <mxCell id="kcX6w27q7vT2_koJ7fqC-22" value="TCP 三次握手&lt;br style=&quot;font-size: 16px;&quot;&gt;建立连接" style="text;html=1;align=center;verticalAlign=middle;resizable=0;points=[];autosize=1;strokeColor=#d79b00;fontSize=16;fillColor=#ffe6cc;" vertex="1" parent="1">
          <mxGeometry x="596.67" y="40" width="120" height="40" as="geometry" />
        </mxCell>
        <mxCell id="kcX6w27q7vT2_koJ7fqC-23" value="请求B" style="endArrow=classic;html=1;fontSize=16;fillColor=#ffff88;strokeWidth=2;strokeColor=#3399FF;fontColor=#3399FF;" edge="1" parent="1">
          <mxGeometry width="50" height="50" relative="1" as="geometry">
            <mxPoint x="566.6700000000002" y="180" as="sourcePoint" />
            <mxPoint x="746.6700000000002" y="230" as="targetPoint" />
          </mxGeometry>
        </mxCell>
        <mxCell id="kcX6w27q7vT2_koJ7fqC-24" value="响应A" style="endArrow=classic;html=1;fontSize=16;strokeWidth=2;strokeColor=#00CC00;fontColor=#00CC00;" edge="1" parent="1">
          <mxGeometry width="50" height="50" relative="1" as="geometry">
            <mxPoint x="748.3400000000001" y="270" as="sourcePoint" />
            <mxPoint x="568.3400000000001" y="320" as="targetPoint" />
          </mxGeometry>
        </mxCell>
        <mxCell id="kcX6w27q7vT2_koJ7fqC-25" value="" style="shape=flexArrow;endArrow=classic;startArrow=classic;html=1;fontSize=16;gradientColor=#ea6b66;fillColor=#f8cecc;strokeColor=#b85450;" edge="1" parent="1">
          <mxGeometry width="100" height="100" relative="1" as="geometry">
            <mxPoint x="571.6700000000001" y="460" as="sourcePoint" />
            <mxPoint x="741.6700000000001" y="460" as="targetPoint" />
          </mxGeometry>
        </mxCell>
        <mxCell id="kcX6w27q7vT2_koJ7fqC-26" value="TCP 四次挥手&lt;br style=&quot;font-size: 16px;&quot;&gt;断开连接" style="text;html=1;align=center;verticalAlign=middle;resizable=0;points=[];autosize=1;strokeColor=#b85450;fontSize=16;fillColor=#f8cecc;" vertex="1" parent="1">
          <mxGeometry x="598.3399999999999" y="410" width="120" height="40" as="geometry" />
        </mxCell>
        <mxCell id="kcX6w27q7vT2_koJ7fqC-30" value="响应B" style="endArrow=classic;html=1;fontSize=16;strokeWidth=2;strokeColor=#00CC00;fontColor=#00CC00;" edge="1" parent="1">
          <mxGeometry width="50" height="50" relative="1" as="geometry">
            <mxPoint x="746.6700000000001" y="340" as="sourcePoint" />
            <mxPoint x="566.6700000000001" y="390" as="targetPoint" />
          </mxGeometry>
        </mxCell>
        <mxCell id="kcX6w27q7vT2_koJ7fqC-31" value="" style="endArrow=none;dashed=1;html=1;dashPattern=1 3;strokeWidth=2;" edge="1" parent="1">
          <mxGeometry width="50" height="50" relative="1" as="geometry">
            <mxPoint x="480" y="560" as="sourcePoint" />
            <mxPoint x="480" y="-120" as="targetPoint" />
          </mxGeometry>
        </mxCell>
        <mxCell id="kcX6w27q7vT2_koJ7fqC-32" value="HTTP 流水线技术" style="text;html=1;align=center;verticalAlign=middle;resizable=0;points=[];autosize=1;strokeColor=#36393d;fontSize=16;fontStyle=1;fillColor=#ffff88;" vertex="1" parent="1">
          <mxGeometry x="588.34" y="-110" width="140" height="20" as="geometry" />
        </mxCell>
      </root>
    </mxGraphModel>
  </diagram>
</mxfile>
